<svg width="512" height="512" viewBox="0 0 512 512" fill="none" xmlns="http://www.w3.org/2000/svg">
<path d="M456 256C456 366.457 366.457 456 256 456C145.543 456 56 366.457 56 256C56 145.543 145.543 56 256 56C366.457 56 456 145.543 456 256ZM120.352 256C120.352 330.916 181.084 391.648 256 391.648C330.916 391.648 391.648 330.916 391.648 256C391.648 181.084 330.916 120.352 256 120.352C181.084 120.352 120.352 181.084 120.352 256Z" fill="#30475E"/>
<path d="M512 256C512 397.385 397.385 512 256 512C114.615 512 0 397.385 0 256C0 114.615 114.615 0 256 0C397.385 0 512 114.615 512 256ZM49.5678 256C49.5678 370.009 141.991 462.432 256 462.432C370.009 462.432 462.432 370.009 462.432 256C462.432 141.991 370.009 49.5678 256 49.5678C141.991 49.5678 49.5678 141.991 49.5678 256Z" fill="#F05454"/>
<circle cx="256" cy="256" r="125" fill="#222831"/>
</svg>
